<!DOCTYPE svg PUBLIC "-//W3C//DTD SVG 1.1//EN" "http://www.w3.org/Graphics/SVG/1.1/DTD/svg11.dtd">

<!-- Uploaded to: SVG Repo, www.svgrepo.com, Transformed by: SVG Repo Mixer Tools -->
<svg height="35px" width="35px" version="1.1" id="Capa_1" xmlns="http://www.w3.org/2000/svg" xmlns:xlink="http://www.w3.org/1999/xlink" viewBox="0 0 512 512" xml:space="preserve" fill="#000000">
<g id="SVGRepo_bgCarrier" stroke-width="0"/>
<g id="SVGRepo_tracerCarrier" stroke-linecap="round" stroke-linejoin="round"/>
<g id="SVGRepo_iconCarrier"> <path style="fill:#FFD200;" d="M256,0C114.84,0,0,114.842,0,256s114.84,256,256,256c141.158,0,256-114.842,256-256S397.158,0,256,0z "/> <path style="fill:#FFD200;" d="M256,0v512c141.158,0,256-114.842,256-256S397.158,0,256,0z"/> <path style="fill:#000;" d="M318.061,139.636c-12.853,0-23.273,10.42-23.273,23.273v186.182c0,12.853,10.42,23.273,23.273,23.273 c12.851,0,23.273-10.42,23.273-23.273V162.909C341.333,150.056,330.912,139.636,318.061,139.636z"/> <path style="fill:#00000;" d="M193.939,139.636c-12.853,0-23.273,10.42-23.273,23.273v186.182c0,12.853,10.42,23.273,23.273,23.273 c12.851,0,23.273-10.42,23.273-23.273V162.909C217.212,150.056,206.791,139.636,193.939,139.636z"/> </g>
</svg>